<?xml version="1.0" encoding="utf-8"?>
<!-- Generator: Adobe Illustrator 16.0.0, SVG Export Plug-In . SVG Version: 6.00 Build 0)  -->
<!DOCTYPE svg PUBLIC "-//W3C//DTD SVG 1.1//EN" "http://www.w3.org/Graphics/SVG/1.1/DTD/svg11.dtd">
<svg version="1.1" id="Capa_1" xmlns="http://www.w3.org/2000/svg" xmlns:xlink="http://www.w3.org/1999/xlink" x="0px" y="0px"
	 width="260px" height="42px" viewBox="0 0 260 42" enable-background="new 0 0 260 42" xml:space="preserve">
<g>
	<g>
		<path fill="#FFFFFF" d="M2.842,11.353c-1.293,0-2.342,1.061-2.342,2.362c0,1.302,1.048,2.359,2.342,2.359
			c1.293,0,2.345-1.057,2.345-2.359C5.187,12.414,4.135,11.353,2.842,11.353z"/>
		<path fill="#FFFFFF" d="M63.81,29.842c-1.286,0-2.337,1.063-2.337,2.363c0,1.299,1.051,2.357,2.337,2.357
			c1.297,0,2.349-1.059,2.349-2.357C66.158,30.904,65.107,29.842,63.81,29.842z"/>
		<path fill="#FFFFFF" d="M34.573,14.019C33.192,12.756,30.999,12,28.46,12h-0.141C26.234,12,24,12.355,22,13.895v-1.213l0,0V5.725
			c0-0.181,0.113-0.379-0.023-0.504C21.843,5.087,21.837,5,21.651,5h-2.375c-0.193,0-0.65,0.087-0.791,0.221
			C18.348,5.346,18,5.544,18,5.725v6.821v14.489v6.788c0,0.182,0.348,0.102,0.485,0.23C18.62,34.181,19.083,34,19.276,34h2.375
			c0.186,0,0.191,0.181,0.325,0.054C22.113,33.925,22,34.005,22,33.823V32.42c2,1.77,4.235,2.58,6.319,2.58h0.148
			c2.541,0,4.737-0.894,6.105-2.153c2.554-2.428,3.147-6.188,3.147-9.642c0-3.433-0.593-6.723-3.105-9.132
			C34.599,14.055,34.584,14.034,34.573,14.019z M34,23.157v0.047v0.007v0.047c0,2.158-0.284,4.268-1.102,5.775
			c-0.814,1.448-2.13,2.169-4.648,2.214C28.231,31.245,28.179,31,28.133,31h-0.045c-2.538,0-4.027-0.755-4.846-2.216
			C22.417,27.271,22,25.39,22,23.221v-0.132c0-2.152,0.417-4.006,1.242-5.513C24.061,16.106,25.55,15,28.088,15h0.018h0.041h0.04
			c2.533,0,3.896,1.106,4.712,2.578C33.722,19.083,34,20.937,34,23.089V23.157z"/>
		<path fill="#FFFFFF" d="M15.013,12h-4.072L11,7.674V5.671C11,5.317,10.626,5,10.24,5H7.783C7.604,5,7.378,5.081,7.249,5.203
			C7.115,5.326,7,5.506,7,5.671v3.686v19.35c0,1.571,0.499,2.759,1.492,3.831C9.44,33.579,11.018,34,12.798,34h0.007h1.328l0,0h0.88
			c0.178,0,0.01,0.142,0.137,0.009c0.125-0.135-0.15-0.11-0.15-0.304v-2.395c0-0.186,0.276-0.163,0.15-0.302
			C15.023,30.868,15.191,31,15.013,31h-1.891c-0.387,0-0.688-0.269-0.959-0.364c-0.176-0.059-0.276-0.229-0.371-0.294
			c-0.114-0.078-0.139-0.165-0.251-0.276C11.177,29.686,11,29.029,11,28.129V16h4.013c0.178,0,0.01-0.253,0.137-0.387
			c0.125-0.135-0.15-0.495-0.15-0.689v-2.393c0-0.192,0.276-0.277,0.15-0.42C15.023,11.976,15.191,12,15.013,12z"/>
		<path fill="#FFFFFF" d="M56.471,29.332l-5.958-8.695l4.628-4.91l2.695-2.848l0.165-0.183c0.309-0.313,0.157-0.504,0.021-0.626
			C57.887,11.938,57.703,12,57.508,12h-3.085c-0.192,0-0.664,0.006-0.798,0.125L43,23.07v-9.258V5.646
			c0-0.181,0.16-0.341,0.02-0.463C42.887,5.049,42.934,5,42.748,5h-2.375c-0.192,0-0.701,0.049-0.834,0.183
			C39.397,5.305,39,5.464,39,5.646v8.167V33.79c0,0.185,0.397,0.121,0.538,0.246C39.668,34.163,40.181,34,40.373,34h2.375
			c0.186,0,0.139,0.163,0.271,0.036C43.163,33.911,43,33.975,43,33.79v-5.677l4.733-4.763L51.001,28h-0.009l4.257,5.996
			C55.34,34.139,55.5,34,55.858,34h3.096c0.189,0,0.378,0.171,0.515,0.042c0.131-0.121,0.221-0.323-0.025-0.64L56.471,29.332z"/>
	</g>
	<g>
		<g>
			<path fill="#FFFFFF" d="M87.984,13.223c1.714-0.291,3.751-0.485,5.983-0.485c4.042,0,6.921,0.971,8.829,2.716
				c1.973,1.779,3.105,4.302,3.105,7.827c0,3.557-1.132,6.468-3.138,8.473c-2.069,2.037-5.433,3.137-9.669,3.137
				c-2.038,0-3.687-0.097-5.11-0.258V13.223z M90.797,32.498c0.711,0.096,1.746,0.129,2.846,0.129c6.048,0,9.282-3.362,9.282-9.249
				c0.033-5.142-2.878-8.408-8.829-8.408c-1.456,0-2.555,0.129-3.299,0.291V32.498z"/>
			<path fill="#FFFFFF" d="M120.774,24.478h-8.44v7.858h9.443v2.361h-12.29V12.9h11.804v2.361h-8.958v6.889h8.44V24.478z"/>
			<path fill="#FFFFFF" d="M130.216,34.697L123.069,12.9h3.072l3.396,10.737c0.905,2.943,1.714,5.595,2.329,8.149h0.063
				c0.615-2.521,1.487-5.271,2.491-8.117l3.687-10.769h3.007l-7.793,21.797H130.216z"/>
			<path fill="#FFFFFF" d="M154.728,24.478h-8.439v7.858h9.442v2.361h-12.289V12.9h11.804v2.361h-8.957v6.889h8.439V24.478z"/>
			<path fill="#FFFFFF" d="M159.352,12.9h2.846v19.436h9.313v2.361h-12.159V12.9z"/>
			<path fill="#FFFFFF" d="M193.274,23.572c0,7.471-4.561,11.48-10.122,11.48c-5.789,0-9.799-4.496-9.799-11.093
				c0-6.921,4.269-11.448,10.09-11.448C189.426,12.512,193.274,17.072,193.274,23.572z M176.328,23.896
				c0,4.688,2.522,8.861,6.985,8.861s6.985-4.106,6.985-9.056c0-4.366-2.264-8.893-6.953-8.893
				C178.657,14.808,176.328,19.142,176.328,23.896z"/>
			<path fill="#FFFFFF" d="M196.926,13.159c1.359-0.226,3.138-0.42,5.401-0.42c2.781,0,4.818,0.646,6.112,1.811
				c1.164,1.035,1.908,2.619,1.908,4.56c0,1.973-0.582,3.524-1.682,4.656c-1.521,1.586-3.913,2.394-6.662,2.394
				c-0.841,0-1.617-0.032-2.264-0.193v8.731h-2.814V13.159z M199.74,23.669c0.614,0.161,1.391,0.227,2.328,0.227
				c3.396,0,5.465-1.683,5.465-4.625c0-2.911-2.068-4.301-5.142-4.301c-1.229,0-2.167,0.097-2.651,0.226V23.669z"/>
			<path fill="#FFFFFF" d="M225.384,24.478h-8.44v7.858h9.443v2.361h-12.289V12.9h11.804v2.361h-8.958v6.889h8.44V24.478z"/>
			<path fill="#FFFFFF" d="M230.039,13.191c1.424-0.259,3.493-0.453,5.401-0.453c3.007,0,4.979,0.583,6.307,1.779
				c1.066,0.97,1.713,2.458,1.713,4.172c0,2.846-1.811,4.753-4.074,5.53v0.098c1.649,0.581,2.651,2.134,3.169,4.397
				c0.712,3.04,1.229,5.142,1.682,5.983h-2.91c-0.355-0.647-0.841-2.491-1.424-5.207c-0.646-3.008-1.842-4.139-4.397-4.236h-2.652
				v9.443h-2.813V13.191z M232.853,23.119h2.879c3.008,0,4.916-1.649,4.916-4.139c0-2.814-2.038-4.042-5.014-4.042
				c-1.357,0-2.296,0.097-2.781,0.226V23.119z"/>
			<path fill="#FFFFFF" d="M247.081,31.269c1.261,0.81,3.072,1.423,5.013,1.423c2.878,0,4.56-1.52,4.56-3.719
				c0-2.005-1.164-3.201-4.107-4.301c-3.557-1.294-5.756-3.169-5.756-6.209c0-3.396,2.813-5.918,7.05-5.918
				c2.2,0,3.849,0.518,4.786,1.067l-0.775,2.296c-0.68-0.42-2.135-1.035-4.107-1.035c-2.975,0-4.107,1.778-4.107,3.267
				c0,2.038,1.326,3.04,4.334,4.204c3.687,1.423,5.53,3.202,5.53,6.404c0,3.362-2.458,6.306-7.601,6.306
				c-2.103,0-4.398-0.646-5.563-1.424L247.081,31.269z"/>
		</g>
		<g>
			<g>
				<path fill="#FFFFFF" d="M77.402,41.602c-0.698,0-1.264-0.563-1.264-1.261c0-0.696,0.566-1.263,1.264-1.263
					c0.696,0,1.263,0.566,1.263,1.263C78.665,41.039,78.099,41.602,77.402,41.602"/>
				<path fill="#FFFFFF" d="M77.402,35.154c-0.698,0-1.264-0.561-1.264-1.26c0-0.697,0.566-1.264,1.264-1.264
					c0.696,0,1.263,0.566,1.263,1.264C78.665,34.594,78.099,35.154,77.402,35.154"/>
				<path fill="#FFFFFF" d="M77.402,15.815c-0.698,0-1.264-0.562-1.264-1.261c0-0.697,0.566-1.262,1.264-1.262
					c0.696,0,1.263,0.565,1.263,1.262C78.665,15.253,78.099,15.815,77.402,15.815"/>
				<path fill="#FFFFFF" d="M77.402,2.922c-0.698,0-1.264-0.563-1.264-1.262c0-0.697,0.566-1.262,1.264-1.262
					c0.696,0,1.263,0.565,1.263,1.262C78.665,2.359,78.099,2.922,77.402,2.922"/>
				<path fill="#FFFFFF" d="M77.402,9.369c-0.698,0-1.264-0.563-1.264-1.262c0-0.697,0.566-1.262,1.264-1.262
					c0.696,0,1.263,0.565,1.263,1.262C78.665,8.806,78.099,9.369,77.402,9.369"/>
				<path fill="#FFFFFF" d="M77.402,28.708c-0.698,0-1.264-0.562-1.264-1.261c0-0.696,0.566-1.263,1.264-1.263
					c0.696,0,1.263,0.566,1.263,1.263C78.665,28.146,78.099,28.708,77.402,28.708"/>
				<path fill="#FFFFFF" d="M77.402,22.262c-0.698,0-1.264-0.563-1.264-1.261c0-0.696,0.566-1.262,1.264-1.262
					c0.696,0,1.263,0.566,1.263,1.262C78.665,21.699,78.099,22.262,77.402,22.262"/>
			</g>
		</g>
	</g>
</g>
</svg>
